<svg xmlns="http://www.w3.org/2000/svg" width="233.742" height="220.053" viewBox="0 0 233.742 220.053">
  <g id="Grupo_2" data-name="Grupo 2" transform="translate(-120.104 -75.695)">
    <g id="Grupo_1" data-name="Grupo 1" transform="translate(120.104 75.695)">
      <path id="Caminho_1" data-name="Caminho 1" d="M193.936,295.748c-26.928,0-34.469-23.8-42.452-48.993-2.346-7.4-5-15.781-8.3-24.411-2.4-6.293-4.919-11.665-7.35-16.858-8.091-17.269-15.733-33.577-15.733-74.214A55.641,55.641,0,0,1,175.681,75.7H212.2A57.025,57.025,0,0,1,253.68,93.708a50.915,50.915,0,0,1,14.065,38.411c-1.493,22.547-6.76,60.681-16.7,93.945C237.226,272.3,218.013,295.748,193.936,295.748Zm-18.255-194.4a29.959,29.959,0,0,0-29.926,29.926c0,34.925,5.874,47.46,13.307,63.332,2.508,5.353,5.35,11.418,8.089,18.594,3.56,9.32,6.336,18.081,8.784,25.808,7.755,24.468,10.867,31.092,18,31.092,21.951,0,43.94-75.083,48.212-139.672a25.514,25.514,0,0,0-7.194-19.187,31.3,31.3,0,0,0-22.758-9.893Z" transform="translate(-120.104 -75.695)" fill="#a2dfed"/>
    </g>
    <path id="Caminho_2" data-name="Caminho 2" d="M242.45,75.7H205.934A57.019,57.019,0,0,0,164.448,93.71a50.9,50.9,0,0,0-14.062,38.408c1.491,22.544,6.758,60.676,16.7,93.945.194.647.4,1.243.6,1.881A359.23,359.23,0,0,0,181.152,173.5a421.363,421.363,0,0,1-5.17-43.076,25.516,25.516,0,0,1,7.191-19.187,31.3,31.3,0,0,1,22.761-9.893H242.45a29.959,29.959,0,0,1,29.926,29.926c0,26.332-7.026,35.507-15.16,46.126-5.808,7.581-12.386,16.171-15.884,29.994-2.822,11.147-4.577,21.86-6.131,31.311-3.8,23.168-6.036,31.394-11.01,31.394-10.5,0-20.994-17.178-29.564-42.144a196.555,196.555,0,0,1-13.472,33.868c11.871,22.521,26.269,33.928,43.037,33.928,27.643,0,32.055-26.888,36.325-52.892,1.539-9.383,3.129-19.081,5.683-29.171,2.2-8.707,6.253-13.994,11.38-20.689,9.109-11.9,20.447-26.7,20.447-61.725A55.641,55.641,0,0,0,242.45,75.7Z" transform="translate(55.82 0)" fill="#7a99ce"/>
  </g>
</svg>
